<svg width="26" height="26" viewBox="0 0 26 26" fill="none" xmlns="http://www.w3.org/2000/svg">
<path d="M13.1378 2.37921C7.3126 2.37921 2.6228 7.06901 2.6228 12.8942C2.6228 18.7195 7.3126 23.4093 13.1378 23.4093C18.963 23.4093 23.6528 18.7195 23.6528 12.8942C23.6528 7.06901 18.963 2.37921 13.1378 2.37921ZM13.1378 21.3359C8.49739 21.3359 4.69619 17.5347 4.69619 12.8942C4.69619 8.2538 8.49739 4.4526 13.1378 4.4526C17.7783 4.4526 21.5795 8.2538 21.5795 12.8942C21.5795 17.5347 17.7783 21.3359 13.1378 21.3359ZM17.9757 8.2538L11.0151 15.1651L8.29993 12.4499L6.81894 13.9309L11.0151 18.1764L19.4567 9.73479L17.9757 8.2538Z" fill="#F9B800"/>
</svg>
