<svg width="28" height="19" viewBox="0 0 28 19" fill="none" xmlns="http://www.w3.org/2000/svg">
<path d="M0.75 0.625122H27.7495V18.625H0.75V0.625122Z" fill="white"/>
<path d="M15.9372 0.625H12.5623V7.93732H0.75V11.3123H12.5623V18.6246H15.9372V11.3123H27.7495V7.93732H15.9372V0.625Z" fill="#D80027"/>
<path d="M21.5155 12.7551L27.7493 16.2184V12.7551H21.5155ZM17.1843 12.7551L27.7493 18.6246V16.9648L20.1719 12.7551H17.1843ZM24.9352 18.6246L17.1843 14.3181V18.6246H24.9352Z" fill="#0052B4"/>
<path d="M17.1843 12.7551L27.7493 18.6246V16.9648L20.1719 12.7551H17.1843Z" fill="white"/>
<path d="M17.1843 12.7551L27.7493 18.6246V16.9648L20.1719 12.7551H17.1843Z" fill="#D80027"/>
<path d="M5.51398 12.7551L0.75 15.4018V12.7551H5.51398ZM11.315 13.5015V18.6245H2.09423L11.315 13.5015Z" fill="#0052B4"/>
<path d="M8.32741 12.7551L0.75 16.9648V18.6246L11.315 12.7551H8.32741Z" fill="#D80027"/>
<path d="M6.98387 6.49443L0.75 3.03112V6.49443H6.98387ZM11.315 6.49443L0.75 0.625V2.28473L8.32741 6.49443H11.315ZM3.56417 0.625L11.315 4.93141V0.625H3.56417Z" fill="#0052B4"/>
<path d="M11.315 6.49443L0.75 0.625V2.28473L8.32741 6.49443H11.315Z" fill="white"/>
<path d="M11.315 6.49443L0.75 0.625V2.28473L8.32741 6.49443H11.315Z" fill="#D80027"/>
<path d="M22.9854 6.49454L27.7493 3.84786V6.49454H22.9854ZM17.1843 5.74816V0.625061H26.4051L17.1843 5.74816Z" fill="#0052B4"/>
<path d="M20.1719 6.49443L27.7493 2.28473V0.625L17.1843 6.49443H20.1719Z" fill="#D80027"/>
</svg>
