<svg width="375" height="1033" viewBox="0 0 375 1033" fill="none" xmlns="http://www.w3.org/2000/svg">
<path d="M289.486 150.275C243.66 168.864 228.425 175.562 177.5 199.509L150.53 212.273L154.324 201.549L158.281 190.695L175.288 182.865C188.984 176.583 196.235 171.925 210.13 160.154C219.886 151.919 240.937 135.032 256.863 122.459C272.953 109.755 285.924 99.5144 285.336 99.4454C285.043 99.4108 271.933 105.763 255.973 113.566C223.887 129.304 194.584 149.24 175.019 168.684C168.607 175.079 163.25 180.109 162.991 179.781C162.861 179.616 163.5 176.713 164.632 173.42C166.231 168.693 172.349 162.264 189.926 147.054C215.159 125 214.796 125.553 230.911 88.5755C235.025 78.9314 239.475 72.7525 247.2 65.3206C260.646 52.306 253.673 54.6135 234.497 69.4861C217.456 82.6736 205.151 96.1202 192.414 115.772C186.641 124.327 181.794 131.353 181.5 131.318C181.206 131.283 181.629 121.354 182.329 109.075C183.244 88.6285 179.138 0.717571 177.245 0.346013C175.646 0.00907124 159.531 67.3707 156.697 86.3995C153.803 104.677 155.506 129.452 160.916 151.834C163.846 163.647 162.93 179.029 159.154 182.01C158.169 182.788 157.183 178.502 156.863 172.358C155.489 152.387 150.641 134.093 141.169 113.318C131.568 92.3801 115.329 62.0226 110.792 56.276C107.647 52.6294 127.291 127.474 135.026 149.086C137.947 157.175 143.253 170.31 147.22 178.372L154.116 193.184L146.797 208.557C142.658 217.156 139.054 223.732 138.665 223.24C138.277 222.747 135.183 206 131.881 185.951C128.579 165.903 123.956 143.167 121.588 135.441C117.007 121.2 79.2069 34.8369 77.2798 34.7592C76.3983 34.6555 90.0793 91.8194 103.216 142.217C106.085 153.278 113.828 178.615 120.69 198.784C132.807 235.062 133.68 241.569 126.879 247.471C125.73 248.378 121.884 236.756 118.124 221.866C108.246 183.022 104.288 173.62 84.256 138.795C64.4832 104.298 57.7683 86.6784 47.3109 41.3621C44.0699 27.1295 41.0105 15.1523 40.6216 14.6597C40.2328 14.1672 40.2156 21.91 40.5442 31.7788C41.5386 54.9814 46.413 79.3851 55.5564 105.483C59.4368 116.812 64.7 136.644 67.2323 149.304C73.5241 181.917 89.9009 221.227 110.374 253.572L117.65 265.152L112.327 274.952C109.285 280.551 106.252 284.812 105.5 284.872C104.783 284.639 96.5213 263.709 87.473 238.07C68.6331 185.512 58.3491 164.047 35.8283 130.12C27.2209 117.193 12.5988 94.6211 3.28285 80.1207C-15.3837 51.4138 -16.2565 49.9706 -16.4639 51.7335C-16.533 52.3211 -8.03784 72.5336 2.55732 96.4188C13.1525 120.304 25.839 149.201 30.7304 160.798C44.7652 193.428 63.2763 231.053 81.8479 264.366C91.1812 281.252 98.6307 296.426 98.2591 298.319C97.8098 302.138 79.6373 333.81 78.1682 333.638C77.5806 333.568 71.3581 310.495 64.254 282.255C57.2796 254.179 47.8854 221.349 43.4866 209.363C36.6161 190.534 -27.5336 61.0062 -30.0482 60.8593C-31.5173 60.6866 6.13679 174.884 25.7113 230.061C35.4337 257.567 49.797 295.002 57.7822 313.218C70.7886 343.195 71.9725 347.058 69.2332 351.353C67.5828 353.989 62.9251 361.93 58.665 369.025L50.9051 381.815L47.7852 369.086C46.2296 362.052 41.0527 338.953 36.6795 317.885C22.886 252.814 18.3316 239.618 -11.5266 178.169C-23.1674 154.309 -37.2884 124.946 -43.1563 112.787C-48.8946 100.793 -53.9589 90.6648 -54.5465 90.5957C-55.1341 90.5265 -52.8093 99.8854 -49.2574 111.474C-45.835 122.898 -36.5013 154.975 -28.706 182.403C-6.33968 260.696 3.52973 290.751 24.1585 344.562L43.2749 394.769L32.577 412.277C26.5367 421.844 21.1273 429.846 20.4101 429.612C19.6582 429.673 9.84061 396.645 -1.36852 356.453C-21.2372 286.051 -22.4903 282.775 -36.5335 256.549C-52.0977 228.058 -56.6521 214.862 -74.0493 146.239C-85.3622 101.865 -86.7968 96.3345 -87.4535 96.853C-87.7819 97.1122 -86.9521 105.253 -85.5433 114.802C-84.4283 124.316 -82.57 140.173 -81.913 149.783C-80.1064 173.677 -75.69 198.175 -68.6464 225.664C-65.2327 238.428 -62.5448 252.297 -62.4756 256.774C-62.1554 273.046 -58.1365 298.392 -52.8733 318.224C-46.2965 342.083 -36.0557 365.182 -11.2273 411.146C-1.34949 429.734 7.13698 446.222 7.51722 448.054C7.76784 449.722 3.99169 457.767 -0.994352 465.968C-10.1714 480.676 -10.1714 480.676 -11.8739 476.157C-12.9369 473.798 -24.31 438.8 -37.4462 398.53C-61.5407 324.8 -64.7556 316.677 -92.6259 266.185C-97.8889 256.481 -111.474 230.159 -122.665 207.544C-134.021 185.059 -143.605 166.506 -144.357 166.566C-144.944 166.497 -143.596 170.23 -141.505 175.242C-134.418 190.97 -113.522 248.833 -107.221 269.979C-103.799 281.403 -99.8494 302.273 -98.5356 316.428C-94.0667 368.338 -84.327 393.165 -27.8517 496.767C-24.9134 502.177 -25.3801 503.612 -33.9263 516.756C-39.0074 524.499 -43.4922 530.971 -43.9156 530.773C-44.5033 530.703 -48.107 522.088 -52.2206 511.476C-64.0431 480.297 -80.1087 443.407 -89.2433 426.098C-94.0223 417.344 -111.367 391.325 -127.881 368.382C-152.623 334.343 -159.156 324.042 -163.624 312.644C-171.402 292.665 -177.832 261.227 -179.812 233.738C-180.642 220.534 -182.042 209.645 -182.794 209.706C-187.495 209.153 -188.582 266.516 -184.373 292.778C-180.129 318.745 -173.562 333.816 -153.538 364.917C-130.991 399.889 -123.81 416.074 -120.05 441.092C-117.483 458.522 -108.988 473.67 -80.6774 511.554L-54.1815 547.14L-68.1026 567.992C-75.8538 579.443 -82.9397 589.035 -84.0199 589.355C-85.5581 589.77 -90.4323 575.494 -122.339 477.015C-139.961 422.962 -150.936 402.309 -201.327 328.018C-222.56 297.073 -240.267 271.607 -240.691 271.408C-241.996 271.106 -241.901 271.564 -225.757 306.527C-209.13 342.441 -195.899 378.105 -179.928 429.73C-156.793 505.282 -153.604 512.36 -116.418 572.288C-104.872 590.626 -95.7289 606.595 -95.8326 607.477C-96.4374 610.086 -115.984 636.979 -117.323 636.971C-117.911 636.902 -130.088 599.873 -144.469 554.989C-173.446 463.259 -173.351 463.717 -197.661 418.409C-207.314 400.444 -226.223 363.666 -239.315 336.955C-252.538 310.08 -263.988 287.136 -264.636 286.316C-265.578 285.46 -261.534 296.659 -255.942 311.169C-229.714 378.149 -216.603 422.437 -214.183 452.51C-209.532 511.739 -200.423 538.13 -154.716 624.381L-134.347 662.671L-145.952 679.03C-152.381 688.104 -157.817 695.061 -158.076 694.732C-158.335 694.404 -161.904 680.43 -166.338 663.675C-178.031 617.468 -183.104 603.616 -201.365 567.659C-232.528 505.906 -234.308 503.314 -291.336 429.732C-324.417 386.819 -342.634 364.42 -340.767 368.81C-339.125 372.578 -331.46 384.65 -323.786 395.383C-298.499 431.124 -283.791 465.62 -268.779 524.132C-256.256 573.415 -236.811 613.235 -184.692 698.155C-172.343 718.523 -172.308 718.229 -183.499 731.062L-188.338 736.748L-196.755 719.673C-201.171 710.366 -212.095 686.74 -220.987 667.374C-245.021 614.653 -251.969 602.814 -286.753 555.381C-304.08 531.746 -326.445 499.03 -336.271 482.533C-353.857 453.507 -383.706 400.845 -388.313 390.622C-389.635 387.935 -390.931 386.293 -391.035 387.175C-391.346 389.819 -363.311 460.437 -356.795 473.417C-348.922 488.79 -335.959 520.401 -325.951 549.281C-302.755 615.458 -286.379 644.64 -230.146 719.916C-215.118 740.301 -202.812 757.238 -202.881 757.826C-202.821 758.577 -224.873 789.048 -226.023 789.956C-226.187 790.085 -228.365 783.276 -230.793 774.798C-233.057 766.191 -238.381 750.671 -242.33 739.93L-249.59 720.607L-286.923 673.321C-326.33 623.408 -351.892 595.082 -403.803 543.847C-446.917 501.392 -449.622 500.329 -421.657 536.087C-399.525 564.457 -391.471 577.022 -367.377 620.368C-357.56 638.204 -286.878 737.52 -258.878 772.984C-234.897 803.359 -235.027 803.195 -244.221 815.518C-250.218 823.451 -252.223 825.3 -253.519 823.658C-254.427 822.509 -261.712 807.205 -269.602 789.447C-283.905 757.827 -284.389 756.877 -303.582 733.917C-325.921 707.31 -330.994 703.585 -362.674 691.816C-381.22 684.869 -432.551 670.49 -450.335 667.207L-458.657 665.781L-450.837 668.935C-446.568 670.629 -427.21 678.268 -407.983 685.742C-359.978 704.346 -354.707 707.647 -337.855 728.992C-327.485 742.127 -322.507 750.457 -316.682 764.249C-309.76 780.106 -306.364 785.421 -285.882 811.362L-262.809 840.588L-268.08 847.415C-270.914 851.252 -275.46 856.972 -277.801 860.42C-280.273 863.704 -282.874 866.824 -283.366 867.213C-283.859 867.602 -287.903 861.466 -292.198 853.663C-304.6 831.204 -331.147 798.591 -348.275 784.661C-367.028 769.349 -372.144 767.258 -392.59 766.342C-414.963 765.349 -420.122 764.891 -429.222 762.48L-436.887 760.536L-427.995 764.71C-402.363 777.257 -381.07 793.762 -365.255 813.792C-358.515 822.33 -343.418 837.064 -324.639 853.422C-308.004 867.741 -294.756 880.469 -294.894 881.645C-295.335 884.125 -343.925 946.475 -362.098 968.019C-368.155 975.2 -373.064 981.474 -373.133 982.062C-373.34 983.825 -346.171 980.765 -343.544 978.691C-341.574 977.135 -267.466 873.849 -261.59 864.412C-260.138 862.2 -256.215 866.832 -235.776 894.407C-217.801 918.862 -207.103 931.738 -193.63 945.089C-157.205 981.097 -154.863 982.713 -99.297 1009.21C-71.2202 1022.49 -47.732 1033 -47.0753 1032.48C-46.5827 1032.09 -47.6198 1030.78 -49.4432 1029.82C-66.0093 1019.97 -136.388 969.993 -144.148 962.526C-149.636 957.264 -165.07 939.065 -178.681 921.825C-200.847 893.749 -205.617 888.72 -227.032 870.711C-240.029 859.65 -250.883 850.629 -251.013 850.465C-251.531 849.808 -238.379 831.695 -236.08 829.88C-234.931 828.973 -205.575 841.511 -170.853 857.808C-136.26 873.941 -99.5764 890.022 -89.5347 893.289C-79.0697 896.754 -47.4845 903.001 -16.15 907.58C14.1735 911.892 58.2026 918.709 81.6992 922.813C146.218 933.976 148.179 933.76 100.65 922.51C70.3785 915.226 42.1289 903.413 -2.83392 879.209C-41.4796 858.28 -63.8788 851.178 -166.576 827.778L-226.048 814.23L-216.949 801.449C-211.937 794.293 -206.233 786.326 -204.384 783.266C-202.405 780.371 -200.625 777.9 -200.297 777.641C-199.804 777.252 -138.232 799.537 -105.446 812.032C-56.5599 830.74 -17.3182 840.271 10.3522 840.547C36.5536 840.65 132.562 837.346 134.039 836.18C134.696 835.661 105.971 831.687 70.1259 827.471L4.9335 819.504L-42.1292 796.692C-95.6731 770.734 -111.522 766.189 -158.152 762.491C-173.5 761.282 -186.263 759.631 -186.16 758.75C-185.883 756.399 -159.605 719.127 -156.615 716.5C-153.824 714.297 -122.394 729.462 -75.6769 755.213C-51.6183 768.469 -19.4021 783.279 -3.19898 788.611C3.38596 790.875 28.9652 796.267 53.7322 800.967C78.6633 805.538 118.536 813.505 142.352 818.689C201.599 831.615 207.899 832.505 174.637 822.784C142.94 813.694 114.439 800.214 72.1295 774.981C31.643 750.708 6.2538 741.168 -90.5759 714.736C-119.569 706.709 -143.273 699.303 -143.299 698.258C-143.644 696.132 -132.532 680.162 -131.097 680.628C-127.641 681.631 -65.6797 704.409 -43.8768 712.782C-6.82127 726.971 27.6417 737.875 44.8731 740.796C52.9012 742.187 72.6559 743.915 88.8243 744.476C132.231 746.454 185.463 749.737 231.342 753.495C253.775 755.24 271.802 756.466 271.413 755.974C270.894 755.317 256.143 752.837 238.255 750.435C198.106 744.819 168.698 735.254 111.006 709.106C77.062 693.793 46.4273 687.062 -55.3192 673.307L-120.702 664.425L-110.315 649.561C-104.577 641.3 -98.5454 633.073 -96.7048 631.353C-94.3371 628.951 -85.3325 630.904 -50.4461 642.007C1.39526 658.382 2.57054 658.52 67.9358 670.081C96.3928 675.067 126.509 681.141 134.986 683.776C154.128 689.454 208.458 709.993 248.21 726.584C264.404 733.255 277.505 738.371 277.704 737.947C278.084 734.715 73.8287 637.71 50.7468 630.08C26.9476 622.216 -39.5064 617.379 -78.3416 620.853C-83.6044 621.277 -88.2103 621.182 -88.7288 620.525C-89.5066 619.54 -62.468 580.868 -59.02 578.146C-58.0349 577.368 -41.201 581.136 -21.7659 586.847C103.46 622.577 128.504 624.927 225.756 611.047C292.4 601.608 351.344 590.52 349.27 587.893C349.011 587.565 329.567 588.256 306.036 589.51C273.682 591.066 251.568 590.401 215.195 586.868C188.847 584.215 149.303 581.053 127.224 580.095C90.9376 578.359 -43.6643 562.824 -45.8679 560.033C-46.7753 558.884 -26.3819 527.324 -24.9474 527.791C-19.5982 529.165 105.153 557.541 124.043 561.55C155.594 568.091 195.302 571.123 218.971 568.694C228.909 567.778 264.149 564.476 297.394 561.684C330.508 558.728 362.119 555.893 367.546 555.34L377.354 554.259L370.959 552.911C367.632 552.073 342.563 548.678 315.437 545.04C288.441 541.567 235.657 534.465 198.282 529.324C127.646 519.526 95.4816 516.934 26.9797 515.579C4.83127 515.208 -14.1457 514.465 -15.1222 513.903C-15.9691 513.506 -11.9682 506.083 -6.36005 497.657L3.93176 482.335L70.5672 484.364C188.715 487.836 197.149 487.04 267.474 469.099C291.887 462.885 327.948 453.871 347.581 449.031C403.276 435.177 403.077 435.601 357.778 438.315C340.979 439.318 293.623 441.791 252.576 443.814C165.546 448.024 131.516 451.171 70.6876 460.548C46.2579 464.377 23.0726 467.756 19.4431 468.223L12.478 469.191L26.8398 445.859L41.0374 422.656L104.32 422.801C196.353 422.902 195.601 422.963 291.591 397.019C325.89 387.797 354.951 380.045 356.161 379.889C357.207 379.864 357.863 379.345 357.474 378.852C356.437 377.539 177.539 391.646 150.336 395C137.028 396.711 108.968 401.007 87.9695 404.792C66.9705 408.578 49.9034 410.592 50.0762 409.123C50.3872 406.478 67.2376 377.183 69.3721 375.498C70.193 374.849 102.262 371.919 140.769 368.704C179.241 365.782 214.974 362.091 220.505 360.656C226.035 359.222 244.831 352.645 262.416 346.224C280.002 339.803 312.485 328.283 334.815 320.781C356.98 313.41 375.776 306.833 376.597 306.185C377.253 305.666 365.345 308.138 349.868 311.828C309.262 321.499 278.031 326.166 228.247 330.29C179.837 334.128 147.586 339.867 108.077 351.603C93.7409 355.725 81.2711 359.173 80.0959 359.035C78.2984 359.122 95.3389 325.678 98.2943 323.345C98.951 322.826 124.858 317.831 156.193 312.282C204.439 303.51 216.252 300.58 235.842 292.31C248.389 286.934 277.675 274.74 300.705 265.087C323.864 255.598 342.737 247.094 342.807 246.507C342.876 245.919 337.017 247.613 329.749 249.886C303.064 258.96 273.778 266.09 219.768 277.014C168.835 287.109 158.655 290.082 107.601 308.801C104.948 309.829 115.689 285.624 119.301 282.772C119.958 282.254 149.33 276.921 184.424 271.07C225.895 264.182 250.791 258.918 255.907 255.945C260.202 253.621 284.51 243.224 309.959 233.26C335.279 223.131 355.163 214.895 353.988 214.757C347.032 214.386 227.856 243.71 184.19 256.595C156.105 264.909 130.639 272.488 127.562 273.318C122.196 274.623 122.23 274.329 128.625 260.485L135.183 246.512L186.393 234.067C222.092 225.606 242.615 219.53 253.987 214.016C263 209.566 284.233 199.999 300.911 192.429C317.718 185.022 331.415 178.74 331.614 178.316C331.692 176.389 215.999 212.825 181.744 225.477C160.261 233.376 141.5 239.659 140.29 239.814C139.115 239.676 140.42 234.914 143.168 229.28L148.396 219.022L175.85 212.273C222.972 200.389 238.268 194.444 261.764 178.292C273.248 170.557 294.472 157.266 308.834 149.125C323.36 140.855 335.398 133.483 335.338 132.732C335.407 132.144 314.969 140.017 289.486 150.275Z" fill="#FFF6DA"/>
</svg>
